<svg xmlns="http://www.w3.org/2000/svg" aria-hidden="true" viewBox="0 0 24 24" width="24" height="24">
<g fill="none" fill-rule="evenodd">
<path stroke="#708c91" stroke-linecap="round" stroke-linejoin="round" d="M 18.087 4.174 h 3.478 v 17.391 H 2.435 V 4.174 h 3.478 m 1.74 0 h 8.695">
</path>
<path stroke="#708c91" stroke-linecap="round" stroke-linejoin="round" d="M 5.913 2.435 h 1.74 v 3.478 h -1.74 V 2.435 Z m 10.435 0 h 1.739 v 3.478 h -1.74 V 2.435 Z M 2.435 9.39 h 19.13 h -19.13 Z M 5.913 12.87 h 1.74 v 0.87 h -1.74 v -0.87 Z m 5.217 0 h 1.74 v 0.87 h -1.74 v -0.87 Z m -5.217 4.347 h 1.74 v 0.87 h -1.74 v -0.87 Z m 5.217 0 h 1.74 v 0.87 h -1.74 v -0.87 Z m 5.218 -4.347 h 1.739 v 0.87 h -1.74 v -0.87 Z">
</path>
<path fill="#708c91" fill-rule="nonzero" d="M 5.913 12.87 h 1.74 v 0.87 h -1.74 v -0.87 Z m 5.217 0 h 1.74 v 0.87 h -1.74 v -0.87 Z m -5.217 4.347 h 1.74 v 0.87 h -1.74 v -0.87 Z m 5.217 0 h 1.74 v 0.87 h -1.74 v -0.87 Z m 5.218 -4.347 h 1.739 v 0.87 h -1.74 v -0.87 Z">
</path>
</g>
</svg>