<svg xmlns="http://www.w3.org/2000/svg" aria-hidden="true" viewBox="0 0 24 24" width="24" height="24">
<path fill="#708c91" fill-rule="nonzero" d="M 8.526 3.037 l -1.504 0.361 a 1.34 1.34 0 0 0 -0.994 1.578 l 0.95 14.887 c 0.034 0.191 0.076 0.308 0.133 0.417 c 0.217 0.417 0.669 0.683 1.132 0.716 l 2.401 0.004 h 6.026 c 0.736 0 1.33 -0.601 1.33 -1.34 v -2.686 l -0.006 -0.13 a 1.334 1.334 0 0 0 -1.324 -1.21 H 11.06 l 0.076 -1.12 c 0.153 -2.395 0.16 -3.656 0.082 -5.558 c -0.09 -2.19 -0.449 -3.793 -1.208 -5.242 a 1.327 1.327 0 0 0 -1.485 -0.677 Z m 0.234 0.972 a 0.327 0.327 0 0 1 0.366 0.17 c 0.637 1.215 0.964 2.571 1.074 4.416 l 0.02 0.403 c 0.078 1.894 0.07 3.132 -0.088 5.566 l -0.145 2.07 h 6.683 c 0.181 0 0.33 0.15 0.33 0.34 v 2.686 c 0 0.189 -0.149 0.34 -0.33 0.34 H 8.398 c -0.188 0.004 -0.348 -0.08 -0.4 -0.181 a 0.346 0.346 0 0 1 -0.032 -0.09 L 7.017 4.843 c -0.047 -0.252 0.064 -0.43 0.238 -0.472 L 8.76 4.01 Z">
</path>
</svg>