<?xml version="1.0" standalone="no"?>
<!DOCTYPE svg PUBLIC "-//W3C//DTD SVG 20010904//EN"
 "http://www.w3.org/TR/2001/REC-SVG-20010904/DTD/svg10.dtd">
<svg version="1.0" xmlns="http://www.w3.org/2000/svg"
 width="512.000000pt" height="512.000000pt" viewBox="0 0 512.000000 512.000000"
 preserveAspectRatio="xMidYMid meet">
<metadata>
Created by potrace 1.11, written by Peter Selinger 2001-2013
</metadata>
<g transform="translate(0.000000,512.000000) scale(0.100000,-0.100000)"
fill="#000000" stroke="none">
<path d="M2267 4334 c-1 -1 -38 -5 -82 -9 -44 -4 -89 -9 -100 -10 -11 -1 -28
-3 -39 -4 -17 -1 -18 -8 -12 -83 3 -46 8 -92 10 -103 2 -11 7 -56 10 -100 4
-44 9 -93 11 -110 2 -16 7 -57 10 -90 6 -60 11 -113 20 -190 2 -22 7 -67 10
-100 3 -33 8 -78 10 -100 2 -22 7 -67 10 -100 3 -33 8 -73 10 -90 2 -16 7 -64
10 -105 4 -41 8 -85 10 -98 2 -13 7 -53 11 -90 4 -37 8 -76 9 -87 1 -11 3 -31
4 -43 1 -23 4 -24 54 -18 28 3 79 8 112 11 33 4 74 8 90 10 17 2 43 4 58 4
l29 1 -7 82 c-4 45 -8 89 -10 99 -2 10 -7 53 -10 96 -4 43 -8 85 -10 93 -2 8
-6 44 -9 80 -4 36 -9 81 -11 100 -2 19 -7 64 -10 100 -3 36 -8 76 -10 90 -2
14 -7 54 -10 90 -3 36 -8 81 -10 100 -2 19 -7 64 -10 100 -6 69 -14 138 -20
180 -2 14 -7 60 -11 104 -3 43 -8 85 -9 95 -2 9 -4 35 -4 59 l-1 43 -50 -2
c-28 -2 -51 -4 -53 -5z"/>
<path d="M1408 4215 c-2 -1 -48 -5 -103 -9 -55 -3 -111 -8 -125 -11 -14 -2
-54 -6 -89 -10 -36 -3 -79 -8 -95 -10 -17 -2 -62 -7 -101 -11 -38 -3 -83 -8
-100 -10 -16 -1 -47 -4 -68 -5 l-38 -3 6 -48 c3 -26 7 -72 10 -100 12 -119 16
-155 20 -188 2 -19 7 -57 9 -85 3 -27 8 -75 11 -105 3 -30 7 -73 9 -95 3 -22
7 -60 10 -85 3 -25 8 -72 11 -105 4 -33 8 -76 10 -95 2 -19 7 -64 10 -100 4
-36 8 -72 10 -80 2 -8 6 -51 10 -95 4 -44 8 -93 10 -110 2 -16 6 -57 10 -90
10 -100 10 -100 36 -99 32 0 168 13 199 18 14 3 54 7 90 11 36 3 79 7 95 10
17 2 64 6 105 9 41 4 86 9 100 11 14 2 42 7 63 10 193 27 356 131 420 267 73
154 48 349 -60 459 -40 42 -116 81 -191 99 l-52 12 40 29 c126 92 168 272 99
428 -44 100 -139 162 -269 177 -25 3 -57 7 -72 9 -15 1 -28 2 -30 0z m-53
-298 c35 -9 84 -75 86 -117 6 -135 -40 -174 -231 -196 -30 -3 -58 -8 -61 -10
-4 -2 -11 2 -17 9 -11 12 -15 40 -27 162 -3 33 -8 79 -11 103 -4 35 -2 42 13
42 26 1 138 12 140 14 6 5 80 -1 108 -7z m145 -570 c71 -32 93 -68 96 -158 2
-56 -1 -71 -21 -102 -33 -47 -111 -84 -205 -96 -180 -24 -178 -24 -184 -3 -4
11 -6 24 -4 28 1 5 -1 32 -5 59 -11 78 -20 176 -21 224 -1 41 1 45 24 46 60 4
185 17 188 20 8 8 102 -5 132 -18z"/>
<path d="M3097 4024 c-1 -1 -27 -5 -57 -8 -91 -9 -148 -22 -278 -63 l-83 -27
5 -35 c3 -20 8 -63 12 -96 10 -100 13 -128 17 -132 2 -2 42 14 88 35 75 35
135 58 179 70 8 2 58 5 110 7 136 6 195 -24 215 -107 5 -18 3 -28 -4 -29 -6
-1 -14 -2 -18 -3 -5 -1 -28 -6 -53 -10 -94 -16 -287 -65 -325 -83 -108 -49
-197 -131 -221 -203 -43 -134 -9 -293 83 -386 60 -60 122 -86 219 -92 130 -7
228 30 334 125 27 25 51 40 51 34 1 -6 3 -15 4 -21 1 -5 3 -26 4 -46 l1 -35
68 6 c37 3 76 8 87 10 11 2 54 7 95 11 41 3 79 9 83 11 7 4 3 87 -8 163 -2 14
-7 57 -10 95 -3 39 -8 84 -10 100 -2 17 -7 57 -10 90 -4 33 -8 74 -10 90 -2
17 -6 66 -10 110 -9 110 -31 202 -60 251 -42 71 -127 135 -200 150 -11 2 -42
8 -70 14 -42 8 -220 11 -228 4z m234 -611 c1 -10 3 -27 4 -38 1 -11 6 -53 10
-93 8 -84 2 -95 -75 -140 -37 -22 -57 -27 -121 -27 -67 0 -81 3 -102 23 -46
44 -52 147 -11 193 25 28 91 57 179 80 92 23 115 23 116 2z"/>
<path d="M2971 2460 c-68 -10 -201 -23 -223 -22 -21 1 -22 -15 -8 -138 5 -47
12 -112 15 -145 3 -33 8 -76 10 -95 2 -19 7 -64 10 -100 3 -36 8 -76 10 -90 2
-14 7 -52 10 -85 3 -33 7 -76 10 -95 2 -19 7 -66 10 -103 4 -37 8 -76 10 -85
1 -9 6 -53 10 -97 3 -44 8 -91 10 -105 2 -14 7 -59 10 -100 3 -41 8 -82 10
-90 2 -8 7 -51 10 -95 7 -77 15 -97 39 -90 6 2 40 6 76 10 176 16 241 25 236
33 -2 4 -7 39 -11 77 -3 39 -8 84 -10 100 -2 17 -6 57 -10 90 -3 33 -8 78 -10
100 -2 22 -9 90 -15 150 -13 129 -19 185 -25 240 -2 22 -7 67 -10 100 -3 33
-8 76 -10 95 -8 74 -21 194 -30 280 -2 19 -7 69 -11 110 -3 41 -8 82 -10 90
-1 8 -3 27 -3 43 -1 30 -4 31 -100 17z"/>
<path d="M2028 2335 c-2 -1 -39 -5 -83 -9 -44 -3 -89 -8 -100 -10 -11 -2 -58
-7 -105 -11 -47 -4 -93 -9 -104 -11 -10 -2 -51 -6 -90 -10 -102 -9 -151 -19
-149 -30 0 -5 4 -45 8 -89 10 -114 22 -230 30 -285 2 -14 6 -56 10 -95 3 -38
8 -88 10 -110 17 -144 35 -319 40 -370 3 -33 7 -71 9 -85 3 -14 8 -60 11 -103
4 -43 8 -88 10 -100 2 -12 6 -51 10 -87 3 -36 8 -74 10 -85 2 -11 4 -30 4 -43
1 -13 4 -21 9 -19 4 3 39 8 77 11 79 8 144 15 195 21 19 3 62 8 95 11 33 3 76
7 95 10 19 2 60 7 90 10 30 3 69 7 87 9 211 23 386 132 454 280 55 122 48 280
-18 393 -45 77 -143 139 -249 158 -35 6 -44 15 -24 22 32 11 101 91 127 148
23 50 27 72 27 144 -1 176 -88 283 -264 328 -18 4 -218 11 -222 7z m56 -308
c59 -39 82 -159 41 -221 -20 -30 -85 -63 -140 -70 -89 -12 -154 -15 -158 -8
-3 4 -8 40 -11 80 -8 91 -16 170 -21 200 -2 12 -3 22 -2 22 1 1 31 4 67 7 36
3 67 7 69 9 12 11 131 -3 155 -19z m146 -571 c46 -30 72 -82 71 -141 -1 -57
-8 -87 -29 -115 -23 -32 -115 -77 -172 -84 -25 -3 -63 -8 -85 -11 -126 -16
-125 -16 -126 13 0 15 -2 34 -4 43 -3 19 -13 104 -20 184 -3 33 -8 72 -11 87
-6 31 -1 33 111 43 39 4 71 8 73 10 2 2 37 2 77 1 61 -2 82 -8 115 -30z"/>
<path d="M3897 2154 c-1 -1 -42 -4 -92 -7 -120 -8 -287 -44 -388 -84 -27 -11
-36 -20 -33 -32 3 -9 8 -52 12 -96 4 -44 8 -89 10 -100 1 -11 3 -26 3 -32 1
-20 19 -16 95 21 143 69 281 95 386 73 57 -12 86 -31 105 -70 28 -55 22 -62
-62 -77 -43 -7 -80 -14 -83 -15 -3 -1 -32 -7 -65 -15 -33 -8 -62 -14 -65 -15
-162 -43 -280 -122 -325 -219 -32 -69 -38 -177 -14 -256 48 -160 178 -253 341
-245 130 7 220 48 317 145 23 23 31 27 32 16 1 -9 3 -20 4 -26 1 -5 3 -24 4
-41 l1 -32 78 7 c104 8 203 18 222 21 8 2 21 4 28 4 13 1 12 64 -3 183 -2 14
-6 59 -10 100 -3 40 -8 80 -10 88 -2 8 -7 49 -11 90 -3 41 -8 86 -9 100 -2 14
-6 57 -9 95 -27 285 -123 392 -373 414 -46 4 -85 6 -86 5z m137 -621 c7 -35
19 -162 18 -187 -1 -26 -25 -49 -84 -81 -62 -34 -160 -39 -203 -11 -36 24 -58
80 -52 134 8 75 58 110 212 148 50 12 93 23 97 23 3 1 9 -11 12 -26z"/>
</g>
</svg>
